{"title":"Gallipoli S01E05 The Breakout 1080P WEB-DL","uid":11732668,"size":1694183311,"categoryP":"video","categoryS":"hd___tv_shows","magnet":"?xt=urn:btih:cc1a776b305595ea1acf4068e537640b50ae0128&amp;dn=Gallipoli+S01E05+The+Breakout+1080P+WEB-DL&amp;tr=udp%3A%2F%2Ftracker.openbittorrent.com%3A80&amp;tr=udp%3A%2F%2Fopen.demonii.com%3A1337&amp;tr=udp%3A%2F%2Ftracker.coppersurfer.tk%3A6969&amp;tr=udp%3A%2F%2Fexodus.desync.com%3A6969","seeders":11,"leechers":1,"uploader":"jmanwf","files":2,"time":1425443248,"description":"In August, to break the stalemate at Gallipoli, General Hamilton coordinates a complicated series of feints and attacks against the Turks. As rumours of an attack circulate, Tolly quits his post as a sniper to fight side-by-side with his brother Bevan in the Battle of Lone Pine.\n\n\nVideo\nID                                       : 2\nFormat                                   : AVC\nFormat/Info                              : Advanced Video Codec\nFormat profile                           : &lt;a class=&quot;__cf_email__&quot; href=&quot;/cdn-cgi/l/email-protection&quot; data-cfemail=&quot;622a0b050a222e564c52&quot;&gt;[email&amp;#160;protected]&lt;/a&gt;&lt;script cf-hash='f9e31' type=&quot;text/javascript&quot;&gt;\n/* &lt;![CDATA[ */!function(){try{var t=&quot;currentScript&quot;in document?document.currentScript:function(){for(var t=document.getElementsByTagName(&quot;script&quot;),e=t.length;e--;)if(t[e].getAttribute(&quot;cf-hash&quot;))return t[e]}();if(t&amp;&amp;t.previousSibling){var e,r,n,i,c=t.previousSibling,a=c.getAttribute(&quot;data-cfemail&quot;);if(a){for(e=&quot;&quot;,r=parseInt(a.substr(0,2),16),n=2;a.length-n;n+=2)i=parseInt(a.substr(n,2),16)^r,e+=String.fromCharCode(i);e=document.createTextNode(e),c.parentNode.replaceChild(e,c)}}}catch(u){}}();/* ]]&gt; */&lt;/script&gt;\nFormat settings, CABAC                   : Yes\nFormat settings, ReFrames                : 4 frames\nCodec ID                                 : avc1\nCodec ID/Info                            : Advanced Video Coding\nDuration                                 : 41mn 8s\nBit rate                                 : 4 977 Kbps\nWidth                                    : 1 912 pixels\nHeight                                   : 1 072 pixels\nDisplay aspect ratio                     : 16:9\nFrame rate mode                          : Constant\nFrame rate                               : 25.000 fps\nColor space                              : YUV\nChroma subsampling                       : 4:2:0\nBit depth                                : 8 bits\nScan type                                : Progressive\nBits/(Pixel*Frame)                       : 0.097\nStream size                              : 1.43 GiB (91%)\nLanguage                                 : English\nEncoded date                             : UTC 2015-03-03 03:22:50\nTagged date                              : UTC 2015-03-03 03:26:19\nColor primaries                          : BT.709\nTransfer characteristics                 : BT.709\nMatrix coefficients                      : BT.709\nColor range                              : Limited\n\nAudio #1\nID                                       : 1\nFormat                                   : AAC\nFormat/Info                              : Advanced Audio Codec\nFormat profile                           : LC\nCodec ID                                 : 40\nDuration                                 : 41mn 8s\nDuration_LastFrame                       : -12ms\nBit rate mode                            : Variable\nBit rate                                 : 125 Kbps\nMaximum bit rate                         : 184 Kbps\nChannel(s)                               : 2 channels\nChannel positions                        : Front: L R\nSampling rate                            : 48.0 KHz\nCompression mode                         : Lossy\nStream size                              : 36.8 MiB (2%)\nLanguage                                 : English\nEncoded date                             : UTC 2015-03-03 03:22:50\nTagged date                              : UTC 2015-03-03 03:26:19\n\nAudio #2\nID                                       : 3\nFormat                                   : AC-3\nFormat/Info                              : Audio Coding 3\nMode extension                           : CM (complete main)\nFormat settings, Endianness              : Big\nCodec ID                                 : ac-3\nDuration                                 : 41mn 8s\nDuration_LastFrame                       : -1ms\nBit rate mode                            : Constant\nBit rate                                 : 384 Kbps\nChannel(s)                               : 6 channels\nChannel positions                        : Front: L C R, Side: L R, LFE\nSampling rate                            : 48.0 KHz\nBit depth                                : 16 bits\nCompression mode                         : Lossy\nStream size                              : 113 MiB (7%)\nLanguage                                 : English\nEncoded date                             : UTC 2015-03-03 03:22:50\nTagged date                              : UTC 2015-03-03 03:26:19\n\nText\nID                                       : 4-CC1\nFormat                                   : EIA-608\nMuxing mode                              : Final Cut\nCodec ID                                 : c608\nDuration                                 : 39mn 50s\nBit rate mode                            : Constant\nStream size                              : 0.00 Byte (0%)\nLanguage                                 : English\nEncoded date                             : UTC 2015-03-03 03:22:50\n\n\n &lt;a href=&quot;\nhttps://itunes.apple.com/au/tv-season/gallipoli/id963000707&quot; rel=&quot;nofollow&quot; target=&quot;_NEW&quot;&gt;\nhttps://itunes.apple.com/au/tv-season/gallipoli/id963000707&lt;/a&gt;","torrent":{"xt":"urn:btih:cc1a776b305595ea1acf4068e537640b50ae0128","amp;dn":"Gallipoli+S01E05+The+Breakout+1080P+WEB-DL","amp;tr":["udp%3A%2F%2Ftracker.openbittorrent.com%3A80","udp%3A%2F%2Fopen.demonii.com%3A1337","udp%3A%2F%2Ftracker.coppersurfer.tk%3A6969","udp%3A%2F%2Fexodus.desync.com%3A6969"],"infoHash":"cc1a776b305595ea1acf4068e537640b50ae0128","infoHashBuffer":{"type":"Buffer","data":[204,26,119,107,48,85,149,234,26,207,64,104,229,55,100,11,80,174,1,40]},"announce":[],"urlList":[]}}